# xmcd
#
# Track frame offsets:
#	150
#	22619
#	47207
#	74222
#	98402
#
# Disc length: 1672 seconds
#
# Revision: 1
# Processed by: cddbd v1.5.2PL0 Copyright (c) Steve Scherf et al.
# Submitted via: audiograbber 1.83.01
#
DISCID=38068605
DTITLE=Moorgate - Denial of reality
DYEAR=2009
DGENRE=Death Metal
TTITLE0=Holy
TTITLE1=End of the beginning
TTITLE2=The red and the black
TTITLE3=The defining moments
TTITLE4=The red and the black (Commercial sell-out version)
EXTD=
EXTT0=
EXTT1=
EXTT2=
EXTT3=
EXTT4=
PLAYORDER=
